#define frame_5_width 50
#define frame_5_height 50
static unsigned char frame_5_bits[] = {
   0x00, 0x00, 0x00, 0x00, 0x00, 0x00, 0x00, 0x00, 0x00, 0x00, 0x00, 0x00,
   0x00, 0x00, 0x00, 0x00, 0x00, 0x00, 0x00, 0x00, 0x00, 0x00, 0x00, 0x00,
   0x00, 0x00, 0x00, 0x00, 0x00, 0x00, 0xe0, 0x2f, 0x00, 0x00, 0x00, 0x00,
   0x00, 0xfc, 0xff, 0x01, 0x00, 0x00, 0x00, 0x80, 0xff, 0xff, 0x07, 0x00,
   0x00, 0x00, 0xc0, 0xff, 0xff, 0x0f, 0x00, 0x00, 0x00, 0xf0, 0xff, 0xff,
   0x3f, 0x00, 0x00, 0x00, 0xf8, 0xff, 0xff, 0x7f, 0x00, 0x00, 0x00, 0xfc,
   0xff, 0xff, 0xff, 0x00, 0x00, 0x00, 0xfe, 0x1f, 0xe0, 0xff, 0x01, 0x00,
   0x00, 0xff, 0x03, 0x00, 0xff, 0x03, 0x00, 0x00, 0xff, 0x01, 0x00, 0xfe,
   0x03, 0x00, 0x80, 0xff, 0x00, 0x00, 0xfc, 0x07, 0x00, 0xc0, 0x3f, 0x00,
   0x00, 0xf8, 0x0f, 0x00, 0xc0, 0x3f, 0x00, 0x00, 0xf0, 0x0f, 0x00, 0xc0,
   0x1f, 0x00, 0x00, 0xe0, 0x0f, 0x00, 0xe0, 0x0f, 0x00, 0x00, 0xe0, 0x1f,
   0x00, 0xe0, 0x0f, 0x00, 0x00, 0xc0, 0x1f, 0x00, 0xe0, 0x0f, 0x00, 0x00,
   0xc0, 0x1f, 0x00, 0xf0, 0x07, 0x00, 0x00, 0x80, 0x3f, 0x00, 0xf0, 0x07,
   0x00, 0x00, 0x80, 0x3f, 0x00, 0xf0, 0x07, 0x00, 0x00, 0x80, 0x3f, 0x00,
   0xf0, 0x07, 0x00, 0x00, 0x80, 0x3f, 0x00, 0x00, 0x00, 0x00, 0x00, 0x80,
   0x3f, 0x00, 0x00, 0x00, 0x00, 0x00, 0x80, 0x3f, 0x00, 0x00, 0x00, 0x00,
   0x00, 0x80, 0x3f, 0x00, 0x00, 0x00, 0x00, 0x00, 0xc0, 0x3f, 0x00, 0x00,
   0x00, 0x00, 0x00, 0x80, 0x1f, 0x00, 0x00, 0x00, 0x00, 0x00, 0xc0, 0x1f,
   0x00, 0x00, 0x00, 0x00, 0x00, 0xc0, 0x1f, 0x00, 0x00, 0x00, 0x00, 0x00,
   0xe0, 0x0f, 0x00, 0x00, 0x00, 0x00, 0x00, 0xf0, 0x0f, 0x00, 0x00, 0x00,
   0x00, 0x00, 0xf8, 0x0f, 0x00, 0x00, 0x00, 0x00, 0x00, 0xf8, 0x07, 0x00,
   0x00, 0x00, 0x00, 0x00, 0xfe, 0x03, 0x00, 0x00, 0x00, 0x00, 0x80, 0xff,
   0x03, 0x00, 0x00, 0x00, 0x00, 0xd0, 0xff, 0x01, 0x00, 0x00, 0x00, 0x00,
   0xfe, 0xff, 0x00, 0x00, 0x00, 0x00, 0x00, 0xfe, 0x7f, 0x00, 0x00, 0x00,
   0x00, 0x00, 0xfe, 0x3f, 0x00, 0x00, 0x00, 0x00, 0x00, 0xfe, 0x0f, 0x00,
   0x00, 0x00, 0x00, 0x00, 0xfe, 0x07, 0x00, 0x00, 0x00, 0x00, 0x00, 0xfe,
   0x00, 0x00, 0x00, 0x00, 0x00, 0x00, 0x1e, 0x00, 0x00, 0x00, 0x00, 0x00,
   0x00, 0x00, 0x00, 0x00, 0x00, 0x00, 0x00, 0x00, 0x00, 0x00, 0x00, 0x00,
   0x00, 0x00, 0x00, 0x00, 0x00, 0x00, 0x00, 0x00, 0x00, 0x00, 0x00, 0x00,
   0x00, 0x00 };
