#define signal4_3_width 25
#define signal4_3_height 18
static unsigned char signal4_3_bits[] = {
   0xff, 0xff, 0xff, 0x01, 0xff, 0xff, 0xff, 0x01, 0xff, 0xff, 0xff, 0x01,
   0xff, 0xff, 0xff, 0x01, 0xff, 0xff, 0xff, 0x01, 0xff, 0xff, 0xff, 0x01,
   0xff, 0xff, 0xff, 0x01, 0xff, 0xff, 0xf8, 0x01, 0xff, 0xff, 0xf8, 0x01,
   0xff, 0xff, 0xf8, 0x01, 0xff, 0xff, 0xf8, 0x01, 0xff, 0xc7, 0xf8, 0x01,
   0xff, 0xc7, 0xf8, 0x01, 0xff, 0xc7, 0xf8, 0x01, 0x3f, 0xc6, 0xf8, 0x01,
   0x3f, 0xc6, 0xf8, 0x01, 0x31, 0xc6, 0xf8, 0x01, 0x31, 0xc6, 0xf8, 0x01 };
