#define signal4_width 29
#define signal4_height 15
static unsigned char signal4_bits[] = {
   0xff, 0xff, 0xff, 0x1f, 0xff, 0xff, 0xff, 0x1f, 0xff, 0xff, 0xff, 0x1f,
   0xff, 0xff, 0xe3, 0x1f, 0xff, 0xff, 0xe3, 0x1f, 0xff, 0xff, 0xe3, 0x1f,
   0xff, 0x1f, 0xe3, 0x1f, 0xff, 0x1f, 0xe3, 0x1f, 0xff, 0x1f, 0xe3, 0x1f,
   0xff, 0x18, 0xe3, 0x1f, 0xff, 0x18, 0xe3, 0x1f, 0xff, 0x18, 0xe3, 0x1f,
   0xc7, 0x18, 0xe3, 0x1f, 0xc7, 0x18, 0xe3, 0x1f, 0xc7, 0x18, 0xe3, 0x1f };
