#define signal5_2_width 21
#define signal5_2_height 18
static unsigned char signal5_2_bits[] = {
   0xff, 0xff, 0x1f, 0xff, 0xff, 0x11, 0xff, 0xff, 0x11, 0xff, 0xff, 0x11,
   0xff, 0xff, 0x11, 0xff, 0xff, 0x11, 0xff, 0xff, 0x11, 0xff, 0x1f, 0x11,
   0xff, 0x1f, 0x11, 0xff, 0x1f, 0x11, 0xff, 0x1f, 0x11, 0xff, 0x11, 0x11,
   0xff, 0x11, 0x11, 0xff, 0x11, 0x11, 0x1f, 0x11, 0x11, 0x1f, 0x11, 0x11,
   0x11, 0x11, 0x11, 0x11, 0x11, 0x11 };
