#define signal5_width 29
#define signal5_height 15
static unsigned char signal5_bits[] = {
   0xff, 0xff, 0x7f, 0x1c, 0xff, 0xff, 0x7f, 0x1c, 0xff, 0xff, 0x7f, 0x1c,
   0xff, 0xff, 0x63, 0x1c, 0xff, 0xff, 0x63, 0x1c, 0xff, 0xff, 0x63, 0x1c,
   0xff, 0x1f, 0x63, 0x1c, 0xff, 0x1f, 0x63, 0x1c, 0xff, 0x1f, 0x63, 0x1c,
   0xff, 0x18, 0x63, 0x1c, 0xff, 0x18, 0x63, 0x1c, 0xff, 0x18, 0x63, 0x1c,
   0xc7, 0x18, 0x63, 0x1c, 0xc7, 0x18, 0x63, 0x1c, 0xc7, 0x18, 0x63, 0x1c };
