#define signal2_3_width 25
#define signal2_3_height 18
static unsigned char signal2_3_bits[] = {
   0xff, 0xff, 0xff, 0x01, 0xff, 0xff, 0xff, 0x01, 0xff, 0xff, 0xff, 0x01,
   0xff, 0xff, 0xff, 0x01, 0xff, 0xff, 0xff, 0x01, 0xff, 0xff, 0xff, 0x01,
   0xff, 0xff, 0xff, 0x01, 0xff, 0xff, 0xff, 0x01, 0xff, 0xff, 0xff, 0x01,
   0xff, 0xff, 0xff, 0x01, 0xff, 0xff, 0xff, 0x01, 0xff, 0xff, 0xff, 0x01,
   0xff, 0xff, 0xff, 0x01, 0xff, 0xff, 0xff, 0x01, 0x3f, 0xfe, 0xff, 0x01,
   0x3f, 0xfe, 0xff, 0x01, 0x31, 0xfe, 0xff, 0x01, 0x31, 0xfe, 0xff, 0x01 };
