#define signal2_width 29
#define signal2_height 15
static unsigned char signal2_bits[] = {
   0xff, 0xff, 0xff, 0x1f, 0xff, 0xff, 0xff, 0x1f, 0xff, 0xff, 0xff, 0x1f,
   0xff, 0xff, 0xff, 0x1f, 0xff, 0xff, 0xff, 0x1f, 0xff, 0xff, 0xff, 0x1f,
   0xff, 0xff, 0xff, 0x1f, 0xff, 0xff, 0xff, 0x1f, 0xff, 0xff, 0xff, 0x1f,
   0xff, 0xf8, 0xff, 0x1f, 0xff, 0xf8, 0xff, 0x1f, 0xff, 0xf8, 0xff, 0x1f,
   0xc7, 0xf8, 0xff, 0x1f, 0xc7, 0xf8, 0xff, 0x1f, 0xc7, 0xf8, 0xff, 0x1f };
