#define signal3_2_width 21
#define signal3_2_height 18
static unsigned char signal3_2_bits[] = {
   0xff, 0xff, 0x1f, 0xff, 0xff, 0x1f, 0xff, 0xff, 0x1f, 0xff, 0xff, 0x1f,
   0xff, 0xff, 0x1f, 0xff, 0xff, 0x1f, 0xff, 0xff, 0x1f, 0xff, 0xff, 0x1f,
   0xff, 0xff, 0x1f, 0xff, 0xff, 0x1f, 0xff, 0xff, 0x1f, 0xff, 0xf1, 0x1f,
   0xff, 0xf1, 0x1f, 0xff, 0xf1, 0x1f, 0x1f, 0xf1, 0x1f, 0x1f, 0xf1, 0x1f,
   0x11, 0xf1, 0x1f, 0x11, 0xf1, 0x1f };
