#define signal3_width 29
#define signal3_height 15
static unsigned char signal3_bits[] = {
   0xff, 0xff, 0xff, 0x1f, 0xff, 0xff, 0xff, 0x1f, 0xff, 0xff, 0xff, 0x1f,
   0xff, 0xff, 0xff, 0x1f, 0xff, 0xff, 0xff, 0x1f, 0xff, 0xff, 0xff, 0x1f,
   0xff, 0x1f, 0xff, 0x1f, 0xff, 0x1f, 0xff, 0x1f, 0xff, 0x1f, 0xff, 0x1f,
   0xff, 0x18, 0xff, 0x1f, 0xff, 0x18, 0xff, 0x1f, 0xff, 0x18, 0xff, 0x1f,
   0xc7, 0x18, 0xff, 0x1f, 0xc7, 0x18, 0xff, 0x1f, 0xc7, 0x18, 0xff, 0x1f };
