#define signal2_2_width 21
#define signal2_2_height 18
static unsigned char signal2_2_bits[] = {
   0xff, 0xff, 0x1f, 0xff, 0xff, 0x1f, 0xff, 0xff, 0x1f, 0xff, 0xff, 0x1f,
   0xff, 0xff, 0x1f, 0xff, 0xff, 0x1f, 0xff, 0xff, 0x1f, 0xff, 0xff, 0x1f,
   0xff, 0xff, 0x1f, 0xff, 0xff, 0x1f, 0xff, 0xff, 0x1f, 0xff, 0xff, 0x1f,
   0xff, 0xff, 0x1f, 0xff, 0xff, 0x1f, 0x1f, 0xff, 0x1f, 0x1f, 0xff, 0x1f,
   0x11, 0xff, 0x1f, 0x11, 0xff, 0x1f };
