#define signal5_3_width 25
#define signal5_3_height 18
static unsigned char signal5_3_bits[] = {
   0xff, 0xff, 0xff, 0x01, 0xff, 0xff, 0x1f, 0x01, 0xff, 0xff, 0x1f, 0x01,
   0xff, 0xff, 0x1f, 0x01, 0xff, 0xff, 0x1f, 0x01, 0xff, 0xff, 0x1f, 0x01,
   0xff, 0xff, 0x1f, 0x01, 0xff, 0xff, 0x18, 0x01, 0xff, 0xff, 0x18, 0x01,
   0xff, 0xff, 0x18, 0x01, 0xff, 0xff, 0x18, 0x01, 0xff, 0xc7, 0x18, 0x01,
   0xff, 0xc7, 0x18, 0x01, 0xff, 0xc7, 0x18, 0x01, 0x3f, 0xc6, 0x18, 0x01,
   0x3f, 0xc6, 0x18, 0x01, 0x31, 0xc6, 0x18, 0x01, 0x31, 0xc6, 0x18, 0x01 };
