#define battery_05_2_width 29
#define battery_05_2_height 15
static unsigned char battery_05_2_bits[] = {
   0x03, 0x00, 0x80, 0x1f, 0x01, 0x00, 0x00, 0x1e, 0xf8, 0xff, 0x7f, 0x1c,
   0xfc, 0xf7, 0xff, 0x1c, 0xfc, 0xc7, 0xff, 0x10, 0xfc, 0x07, 0xfe, 0x10,
   0xfc, 0x07, 0xf0, 0x10, 0x1c, 0x80, 0xfb, 0x10, 0x7c, 0xc0, 0xff, 0x10,
   0xfc, 0xc3, 0xff, 0x10, 0xfc, 0xcf, 0xff, 0x10, 0xfc, 0xff, 0xff, 0x1c,
   0xf8, 0xff, 0x7f, 0x1c, 0x01, 0x00, 0x00, 0x1e, 0x03, 0x00, 0x80, 0x1f };
