#define battery_04_2_width 29
#define battery_04_2_height 15
static unsigned char battery_04_2_bits[] = {
   0x03, 0x00, 0x80, 0x1f, 0x01, 0x00, 0x00, 0x1e, 0xf8, 0xff, 0x7f, 0x1c,
   0x8c, 0x31, 0xc6, 0x1c, 0x8c, 0x31, 0xc6, 0x10, 0x8c, 0x31, 0xc6, 0x10,
   0x8c, 0x31, 0xc6, 0x10, 0x8c, 0x31, 0xc6, 0x10, 0x8c, 0x31, 0xc6, 0x10,
   0x8c, 0x31, 0xc6, 0x10, 0x8c, 0x31, 0xc6, 0x10, 0x8c, 0x31, 0xc6, 0x1c,
   0xf8, 0xff, 0x7f, 0x1c, 0x01, 0x00, 0x00, 0x1e, 0x03, 0x00, 0x80, 0x1f };
